<?xml version="1.0" encoding="UTF-8" standalone="no"?>
<svg
   xmlns:dc="http://purl.org/dc/elements/1.1/"
   xmlns:cc="http://creativecommons.org/ns#"
   xmlns:rdf="http://www.w3.org/1999/02/22-rdf-syntax-ns#"
   xmlns:svg="http://www.w3.org/2000/svg"
   xmlns="http://www.w3.org/2000/svg"
   xmlns:sodipodi="http://sodipodi.sourceforge.net/DTD/sodipodi-0.dtd"
   xmlns:inkscape="http://www.inkscape.org/namespaces/inkscape"
   width="36.751667mm"
   height="8.1173906mm"
   viewBox="0 0 36.751667 8.1173906"
   version="1.1"
   id="svg8"
   inkscape:version="1.0 (4035a4fb49, 2020-05-01)"
   sodipodi:docname="metado_logo_primary.svg">
  <defs
     id="defs2" />
  <sodipodi:namedview
     id="base"
     pagecolor="#ffffff"
     bordercolor="#666666"
     borderopacity="1.0"
     inkscape:pageopacity="0.0"
     inkscape:pageshadow="2"
     inkscape:zoom="1"
     inkscape:cx="166.57143"
     inkscape:cy="164.36561"
     inkscape:document-units="mm"
     inkscape:current-layer="text835"
     inkscape:document-rotation="0"
     showgrid="false"
     fit-margin-top="0"
     fit-margin-left="0"
     fit-margin-right="0"
     fit-margin-bottom="0"
     inkscape:window-width="1920"
     inkscape:window-height="1027"
     inkscape:window-x="1912"
     inkscape:window-y="22"
     inkscape:window-maximized="1" />
  <metadata
     id="metadata5">
    <rdf:RDF>
      <cc:Work
         rdf:about="">
        <dc:format>image/svg+xml</dc:format>
        <dc:type
           rdf:resource="http://purl.org/dc/dcmitype/StillImage" />
        <dc:title></dc:title>
      </cc:Work>
    </rdf:RDF>
  </metadata>
  <g
     inkscape:label="Layer 1"
     inkscape:groupmode="layer"
     id="layer1"
     transform="translate(-34.017857,-62.344932)">
    <g
       aria-label="Metado"
       id="text835"
       style="font-style:normal;font-weight:normal;font-size:10.5833px;line-height:1.25;font-family:sans-serif;letter-spacing:0px;word-spacing:0px;fill:#000000;fill-opacity:1;stroke:none;stroke-width:0.264583">
      <path
         d="m 44.749322,67.805915 q 0.179917,0 0.179917,0.486832 0,0.264582 -0.22225,0.645581 -0.222249,0.370415 -0.582081,0.687914 -0.349249,0.306916 -0.783164,0.507999 -0.433916,0.201083 -0.920747,0.201083 -0.476249,0 -0.751415,-0.306916 Q 41.405,69.710909 41.405,69.32991 q 0,-0.391582 0.126999,-0.878414 0.127,-0.486832 0.275166,-1.015997 0.402166,-1.407578 0.412749,-1.979077 0,-0.243416 -0.0635,-0.370415 -0.0635,-0.137583 -0.243416,-0.137583 -0.317499,0 -0.677331,0.380999 -0.359832,0.380999 -0.677331,0.973663 -0.730248,1.354663 -0.772581,2.645825 0.02117,0.148166 0.04233,0.296333 0.02117,0.148166 0.02117,0.317499 0,0.338665 -0.338666,0.624414 -0.328082,0.275166 -0.740831,0.275166 -0.243416,0 -0.359832,-0.232832 -0.116416,-0.243416 -0.116416,-0.592665 0,-0.349249 0.158749,-0.952497 0.15875,-0.603248 0.349249,-1.280579 0.507998,-1.788578 0.518582,-2.666992 0,-0.444499 -0.116417,-0.698498 -0.105833,-0.253999 -0.423332,-0.253999 -0.571498,0 -1.132413,0.814914 -0.560915,0.814914 -1.005413,2.529409 -0.116416,0.444498 -0.179916,0.772581 l -0.01058,0.201082 q 0.201082,0.973664 0.201082,1.269996 0,0.613832 -0.433915,0.825498 -0.201083,0.09525 -0.391582,0.179916 -0.179916,0.08467 -0.391582,0.08467 -0.529165,0 -0.529165,-1.005413 0,-1.015997 0.560915,-3.958154 0.201082,-1.05833 0.201082,-1.18533 0,-0.857247 -0.433915,-0.857247 -0.148166,0 -0.275166,0.08467 -0.116416,0.08467 -0.243416,0.179916 -0.116416,0.09525 -0.243416,0.179916 -0.126999,0.08467 -0.296332,0.08467 -0.158749,0 -0.158749,-0.285749 0,-0.582082 0.539748,-0.952497 0.518582,-0.380999 1.259413,-0.380999 0.952497,0 1.121829,0.888997 0.04233,0.264583 0.0635,0.560915 0.783164,-1.471079 1.979077,-1.471079 1.301746,0 1.492245,1.24883 0.0635,0.359832 0.05292,0.772581 v 0.08467 q 0.687914,-0.952497 1.629828,-0.952497 1.333496,0 1.333496,1.608661 0,0.698498 -0.22225,1.640412 -0.211666,0.93133 -0.317499,1.344079 -0.09525,0.402165 -0.09525,0.624415 0,0.402165 0.275166,0.402165 0.285749,0 1.344079,-1.100663 0.190499,-0.211666 0.275165,-0.211666 z"
         style="font-style:normal;font-variant:normal;font-weight:normal;font-stretch:normal;font-size:10.5833px;font-family:'Leckerli One';-inkscape-font-specification:'Leckerli One, Normal';font-variant-ligatures:normal;font-variant-caps:normal;font-variant-numeric:normal;font-variant-east-asian:normal;stroke-width:0.264583;fill:#4681ff;fill-opacity:1"
         id="path837" />
      <path
         d="m 46.867801,69.149994 q 0.825498,0 1.598079,-0.656165 0.285749,-0.243416 0.465665,-0.444498 0.179916,-0.211666 0.275166,-0.211666 0.148166,0 0.148166,0.296332 0,0.296333 -0.15875,0.666748 -0.158749,0.359832 -0.529165,0.709081 -0.910164,0.857247 -2.497658,0.857247 -1.259413,0 -1.714495,-0.910163 -0.15875,-0.317499 -0.15875,-0.910164 0,-0.592665 0.232833,-1.227663 0.232833,-0.645581 0.613831,-1.111246 0.391583,-0.465666 0.899581,-0.719665 0.507998,-0.264582 1.079496,-0.264582 0.582082,0 0.888998,0.285749 0.317499,0.285749 0.317499,0.740831 0,0.455082 -0.232833,0.751414 -0.222249,0.285749 -0.582081,0.486832 -0.359833,0.190499 -0.804331,0.349249 -0.433915,0.148166 -0.857247,0.338665 v 0.264583 q 0.01058,0.380999 0.317499,0.539748 0.306915,0.15875 0.698497,0.169333 z m -0.179916,-2.984491 q -0.550331,0 -0.761997,1.28058 0.222249,-0.148166 0.412748,-0.264583 0.201083,-0.116416 0.349249,-0.222249 0.317499,-0.232833 0.328083,-0.529165 0,-0.264583 -0.328083,-0.264583 z"
         style="font-style:normal;font-variant:normal;font-weight:normal;font-stretch:normal;font-size:10.5833px;font-family:'Leckerli One';-inkscape-font-specification:'Leckerli One, Normal';font-variant-ligatures:normal;font-variant-caps:normal;font-variant-numeric:normal;font-variant-east-asian:normal;stroke-width:0.264583;fill:#4681ff;fill-opacity:1"
         id="path839" />
      <path
         d="m 49.291046,69.732075 q -0.116416,-0.285749 -0.169333,-0.656164 -0.05292,-0.380999 -0.05292,-1.05833 0,-0.677331 0.253999,-1.830911 h -0.476248 q -0.127,0 -0.127,-0.105833 0,-0.253999 0.04233,-0.412749 0.05292,-0.169332 0.232833,-0.380998 h 0.253999 q 0.148166,0 0.317499,-0.01058 0.507998,-1.629828 1.037163,-1.629828 0.423332,0.01058 0.592665,0.539748 0.04233,0.148167 0.09525,0.317499 l -0.433915,0.761998 q 0.740831,0.02117 0.93133,0.02117 0.201083,0 0.211666,0.04233 0.02117,0.03175 0.02117,0.105833 0,0.190499 -0.09525,0.476248 -0.08467,0.285749 -0.201083,0.275166 l -1.05833,-0.05292 q -0.222249,1.291162 -0.222249,2.137826 0,0.846664 0.243416,0.846664 0.201083,0 0.730248,-0.328082 0.529165,-0.338666 0.761997,-0.645582 0.232833,-0.306915 0.380999,-0.306915 0.148166,0 0.148166,0.359832 0,0.359832 -0.253999,0.740831 -0.253999,0.370415 -0.645581,0.687914 -0.380999,0.306916 -0.857248,0.507999 -0.465665,0.201083 -0.814914,0.201083 -0.349249,0 -0.539748,-0.15875 -0.179916,-0.169333 -0.306916,-0.444499 z"
         style="font-style:normal;font-variant:normal;font-weight:normal;font-stretch:normal;font-size:10.5833px;font-family:'Leckerli One';-inkscape-font-specification:'Leckerli One, Normal';font-variant-ligatures:normal;font-variant-caps:normal;font-variant-numeric:normal;font-variant-east-asian:normal;stroke-width:0.264583;fill:#4681ff;fill-opacity:1"
         id="path841" />
      <path
         d="m 58.672149,67.805915 q 0.1905,0 0.1905,0.486832 0,0.264582 -0.222249,0.645581 -0.22225,0.370415 -0.582082,0.687914 -0.349249,0.306916 -0.783164,0.507999 -0.433915,0.201083 -0.846664,0.201083 -0.560915,0 -0.751414,-0.984247 -0.275166,0.455082 -0.719665,0.751414 -0.444498,0.285749 -1.195913,0.285749 -0.740831,0 -1.195912,-0.465665 -0.455082,-0.465665 -0.444499,-1.132413 0,-1.799161 1.195913,-2.836325 0.507998,-0.433915 0.941913,-0.571498 0.444499,-0.137583 0.931331,-0.137583 0.486832,0 0.793747,0.169333 0.148166,-0.306916 0.338666,-0.306916 0.370415,0 0.698498,0.328083 0.338665,0.317499 0.338665,0.603248 -0.148166,0.349249 -0.433915,0.836081 -0.08467,0.486831 -0.08467,1.365245 0,0.878414 0.222249,0.878414 0.275166,0 1.333496,-1.100663 0.190499,-0.211666 0.275165,-0.211666 z m -4.995317,0.634998 q 0,0.814914 0.603248,0.814914 0.645581,-0.01058 1.068913,-0.687915 0.148167,-0.232832 0.243416,-0.571498 0,-1.185329 0.211666,-2.031993 -0.857247,0.169333 -1.492245,0.825497 -0.634998,0.656165 -0.634998,1.650995 z"
         style="font-style:normal;font-variant:normal;font-weight:normal;font-stretch:normal;font-size:10.5833px;font-family:'Leckerli One';-inkscape-font-specification:'Leckerli One, Normal';font-variant-ligatures:normal;font-variant-caps:normal;font-variant-numeric:normal;font-variant-east-asian:normal;stroke-width:0.264583;fill:#4681ff;fill-opacity:1"
         id="path843" />
      <path
         d="m 64.83196,67.805915 q 0.1905,0 0.1905,0.486832 0,0.264582 -0.222249,0.645581 -0.22225,0.370415 -0.582082,0.687914 -0.349249,0.306916 -0.783164,0.507999 -0.433915,0.201083 -0.846664,0.201083 -0.582082,0 -0.761998,-0.952497 -0.634998,1.005413 -1.883827,1.005413 -0.761998,0 -1.217079,-0.465665 -0.455082,-0.465665 -0.444499,-1.132413 0,-1.799161 1.195913,-2.836325 0.825497,-0.709081 1.714494,-0.709081 0.402166,0 0.634998,0.0635 l 0.243416,0.0635 q 0.433916,-2.042577 1.005414,-2.730491 0.190499,-0.232833 0.380998,-0.232833 0.306916,0 0.571499,0.423332 0.232832,0.349249 0.232832,0.603248 0,0.253999 -0.07408,0.497415 -0.07408,0.243416 -0.190499,0.455082 -0.105833,0.201083 -0.243416,0.402165 -0.137583,0.1905 -0.275166,0.391583 -0.306916,1.142996 -0.455082,2.561158 -0.04233,0.402165 -0.04233,0.645581 0,0.730248 0.243416,0.730248 0.275166,0 1.333496,-1.100663 0.190499,-0.211666 0.275165,-0.211666 z m -4.995317,0.634998 q 0,0.814914 0.603248,0.814914 0.359832,0 0.719664,-0.275166 0.370416,-0.275166 0.571499,-0.920747 0.02117,-0.952497 0.222249,-2.095493 -0.846664,0.169333 -1.481662,0.825497 -0.634998,0.656165 -0.634998,1.650995 z"
         style="font-style:normal;font-variant:normal;font-weight:normal;font-stretch:normal;font-size:10.5833px;font-family:'Leckerli One';-inkscape-font-specification:'Leckerli One, Normal';font-variant-ligatures:normal;font-variant-caps:normal;font-variant-numeric:normal;font-variant-east-asian:normal;stroke-width:0.264583;fill:#4681ff;fill-opacity:1"
         id="path845" />
      <path
         d="m 68.769279,69.403993 q -0.836081,0.984247 -2.010827,0.984247 -1.164163,0 -1.746245,-0.592665 -0.582081,-0.603248 -0.571498,-1.492245 -0.01058,-1.259413 0.793747,-2.169576 0.804331,-0.910164 2.106077,-0.910164 0.592665,0 0.952497,0.148166 0.624415,0.253999 0.624415,0.476248 0,0.169333 -0.878414,0.179917 -0.867831,0 -1.460496,0.603248 -0.582081,0.592664 -0.582081,1.502828 0,0.476249 0.275166,0.804331 0.285749,0.317499 0.793747,0.317499 0.518582,0 0.857248,-0.211666 -0.751415,-0.507998 -0.751415,-1.471079 -0.01058,-0.507998 0.359832,-0.920747 0.380999,-0.423332 0.963081,-0.423332 0.592665,-0.01058 0.846664,0.317499 0.253999,0.328083 0.253999,0.846664 0,0.507999 -0.243416,1.079497 h 0.0635 q 0.465665,-0.01058 0.804331,-0.328083 0.126999,-0.126999 0.211666,-0.222249 0.09525,-0.09525 0.190499,-0.09525 0.148166,0 0.148166,0.349249 0,0.645582 -0.380999,0.973664 -0.380998,0.317499 -0.846664,0.317499 -0.455081,0 -0.77258,-0.0635 z m -0.09525,-1.227663 q 0.179916,-0.380998 0.179916,-0.740831 0,-0.359832 -0.232833,-0.359832 -0.09525,0 -0.158749,0.137583 -0.0635,0.137583 -0.0635,0.264583 0,0.423332 0.275166,0.698497 z"
         style="font-style:normal;font-variant:normal;font-weight:normal;font-stretch:normal;font-size:10.5833px;font-family:'Leckerli One';-inkscape-font-specification:'Leckerli One, Normal';font-variant-ligatures:normal;font-variant-caps:normal;font-variant-numeric:normal;font-variant-east-asian:normal;stroke-width:0.264583;fill:#4681ff;fill-opacity:1"
         id="path847" />
    </g>
  </g>
</svg>
