<?xml version="1.0" encoding="UTF-8" standalone="no"?>
<svg
   xmlns:dc="http://purl.org/dc/elements/1.1/"
   xmlns:cc="http://creativecommons.org/ns#"
   xmlns:rdf="http://www.w3.org/1999/02/22-rdf-syntax-ns#"
   xmlns:svg="http://www.w3.org/2000/svg"
   xmlns="http://www.w3.org/2000/svg"
   xmlns:sodipodi="http://sodipodi.sourceforge.net/DTD/sodipodi-0.dtd"
   xmlns:inkscape="http://www.inkscape.org/namespaces/inkscape"
   inkscape:export-ydpi="111.74"
   inkscape:export-xdpi="111.74"
   inkscape:export-filename="C:\Users\macco\Pictures\favicon.png"
   width="10.91138mm"
   height="10.91138mm"
   viewBox="0 0 10.91138 10.91138"
   version="1.1"
   id="svg8"
   inkscape:version="1.0 (4035a4fb49, 2020-05-01)"
   sodipodi:docname="metado_favicon.svg">
  <defs
     id="defs2" />
  <sodipodi:namedview
     id="base"
     pagecolor="#ffffff"
     bordercolor="#666666"
     borderopacity="1.0"
     inkscape:pageopacity="0.0"
     inkscape:pageshadow="2"
     inkscape:zoom="25.97794"
     inkscape:cx="20.619929"
     inkscape:cy="20.619931"
     inkscape:document-units="mm"
     inkscape:current-layer="text835"
     inkscape:document-rotation="0"
     showgrid="false"
     fit-margin-top="0"
     fit-margin-left="0"
     fit-margin-right="0"
     fit-margin-bottom="0"
     inkscape:window-width="1920"
     inkscape:window-height="1027"
     inkscape:window-x="1912"
     inkscape:window-y="22"
     inkscape:window-maximized="1" />
  <metadata
     id="metadata5">
    <rdf:RDF>
      <cc:Work
         rdf:about="">
        <dc:format>image/svg+xml</dc:format>
        <dc:type
           rdf:resource="http://purl.org/dc/dcmitype/StillImage" />
        <dc:title></dc:title>
      </cc:Work>
    </rdf:RDF>
  </metadata>
  <g
     inkscape:label="Layer 1"
     inkscape:groupmode="layer"
     id="layer1"
     transform="translate(-34.01786,-62.344943)">
    <g
       aria-label="Metado"
       id="text835"
       style="font-style:normal;font-weight:normal;font-size:10.5833px;line-height:1.25;font-family:sans-serif;letter-spacing:0px;word-spacing:0px;fill:#000000;fill-opacity:1;stroke:none;stroke-width:0.264583">
      <path
         d="m 44.749322,69.202913 q 0.179917,0 0.179917,0.486832 0,0.264582 -0.22225,0.645581 -0.222249,0.370415 -0.582081,0.687914 -0.349249,0.306916 -0.783164,0.507999 -0.433916,0.201083 -0.920747,0.201083 -0.476249,0 -0.751415,-0.306916 Q 41.405,71.107907 41.405,70.726908 q 0,-0.391582 0.126999,-0.878414 0.127,-0.486832 0.275166,-1.015997 0.402166,-1.407578 0.412749,-1.979077 0,-0.243416 -0.0635,-0.370415 -0.0635,-0.137583 -0.243416,-0.137583 -0.317499,0 -0.677331,0.380999 -0.359832,0.380999 -0.677331,0.973663 -0.730248,1.354663 -0.772581,2.645825 0.02117,0.148166 0.04233,0.296333 0.02117,0.148166 0.02117,0.317499 0,0.338665 -0.338666,0.624414 -0.328082,0.275166 -0.740831,0.275166 -0.243416,0 -0.359832,-0.232832 -0.116416,-0.243416 -0.116416,-0.592665 0,-0.349249 0.158749,-0.952497 0.15875,-0.603248 0.349249,-1.280579 0.507998,-1.788578 0.518582,-2.666992 0,-0.444499 -0.116417,-0.698498 -0.105833,-0.253999 -0.423332,-0.253999 -0.571498,0 -1.132413,0.814914 -0.560915,0.814914 -1.005413,2.529409 -0.116416,0.444498 -0.179916,0.772581 l -0.01058,0.201082 q 0.201082,0.973664 0.201082,1.269996 0,0.613832 -0.433915,0.825498 -0.201083,0.09525 -0.391582,0.179916 -0.179916,0.08467 -0.391582,0.08467 -0.529165,0 -0.529165,-1.005413 0,-1.015997 0.560915,-3.958154 0.201082,-1.05833 0.201082,-1.18533 0,-0.857247 -0.433915,-0.857247 -0.148166,0 -0.275166,0.08467 -0.116416,0.08467 -0.243416,0.179916 -0.116416,0.09525 -0.243416,0.179916 -0.126999,0.08467 -0.296332,0.08467 -0.158749,0 -0.158749,-0.285749 0,-0.582082 0.539748,-0.952497 0.518582,-0.380999 1.259413,-0.380999 0.952497,0 1.121829,0.888997 0.04233,0.264583 0.0635,0.560915 0.783164,-1.471079 1.979077,-1.471079 1.301746,0 1.492245,1.24883 0.0635,0.359832 0.05292,0.772581 v 0.08467 q 0.687914,-0.952497 1.629828,-0.952497 1.333496,0 1.333496,1.608661 0,0.698498 -0.22225,1.640412 -0.211666,0.93133 -0.317499,1.344079 -0.09525,0.402165 -0.09525,0.624415 0,0.402165 0.275166,0.402165 0.285749,0 1.344079,-1.100663 0.190499,-0.211666 0.275165,-0.211666 z"
         style="font-style:normal;font-variant:normal;font-weight:normal;font-stretch:normal;font-size:10.5833px;font-family:'Leckerli One';-inkscape-font-specification:'Leckerli One, Normal';font-variant-ligatures:normal;font-variant-caps:normal;font-variant-numeric:normal;font-variant-east-asian:normal;fill:#4681ff;fill-opacity:1;stroke-width:0.264583"
         id="path837" />
    </g>
  </g>
</svg>
